<svg width="15" height="19" viewBox="0 0 15 19" fill="none" xmlns="http://www.w3.org/2000/svg">
<path d="M12.9106 8.49854L12.0864 7.54854C11.8598 7.28729 11.4653 7.25958 11.2036 7.48917L8.75043 9.67021V0.633333C8.75043 0.285 8.46918 0 8.12543 0H6.87543C6.53168 0 6.25043 0.285 6.25043 0.633333V9.67021L3.7934 7.48917C3.53558 7.25958 3.14105 7.28333 2.91058 7.54854L2.08637 8.49854C1.8559 8.76375 1.88324 9.16354 2.14496 9.39312L7.09027 13.775C7.32465 13.9848 7.67621 13.9848 7.91449 13.775L12.8559 9.38917C13.1137 9.16354 13.1411 8.75979 12.9106 8.49854Z" fill="white"/>
<path d="M14.375 16.4666H0.625C0.28125 16.4666 0 16.7516 0 17.1V18.3666C0 18.715 0.28125 19 0.625 19H14.375C14.7188 19 15 18.715 15 18.3666V17.1C15 16.7516 14.7188 16.4666 14.375 16.4666Z" fill="white"/>
</svg>
