<svg width="47" height="47" viewBox="0 0 47 47" fill="none" xmlns="http://www.w3.org/2000/svg">
<rect width="46.1818" height="46.1818" rx="15" fill="#DFF5F2"/>
<path d="M28.1241 13.9291H21.7362C21.2944 13.9291 20.9377 14.2857 20.9377 14.7276C20.9377 15.1694 21.2944 15.526 21.7362 15.526H28.1241C28.5659 15.526 28.9226 15.1694 28.9226 14.7276C28.9226 14.2857 28.5659 13.9291 28.1241 13.9291Z" fill="#36C0AD"/>
<path d="M28.1241 17.123H21.7362C21.2944 17.123 20.9377 17.4797 20.9377 17.9215C20.9377 18.3633 21.2944 18.72 21.7362 18.72H28.1241C28.5659 18.72 28.9226 18.3633 28.9226 17.9215C28.9226 17.4797 28.5659 17.123 28.1241 17.123Z" fill="#36C0AD"/>
<path d="M28.124 20.3169H15.3483C14.9065 20.3169 14.5498 20.6736 14.5498 21.1154C14.5498 21.5572 14.9065 21.9139 15.3483 21.9139H28.124C28.5658 21.9139 28.9225 21.5572 28.9225 21.1154C28.9225 20.6736 28.5658 20.3169 28.124 20.3169Z" fill="#36C0AD"/>
<path d="M25.2282 23.5109H15.3483C14.9065 23.5109 14.5498 23.8675 14.5498 24.3093C14.5498 24.7512 14.9065 25.1078 15.3483 25.1078H25.2282C25.67 25.1078 26.0266 24.7512 26.0266 24.3093C26.0266 23.8675 25.67 23.5109 25.2282 23.5109Z" fill="#36C0AD"/>
<path d="M32.1697 23.5109V11.4804C32.1697 10.1549 31.0465 9.08496 29.721 9.08496H18.5423C18.34 9.08496 18.1324 9.16481 17.978 9.31918L11.5902 15.7603C11.4411 15.9093 11.356 16.1169 11.356 16.3245V33.9444C11.356 35.2645 12.4312 36.3398 13.7514 36.3398C15.4335 36.3398 15.9978 36.3398 15.9925 36.3398C18.4412 36.3398 23.2587 36.3398 32.1697 36.3398C35.6937 36.3398 38.6108 33.4387 38.6108 29.8987C38.6108 26.3748 35.7203 23.5109 32.1697 23.5109ZM17.7438 11.8211V15.526H14.0708L17.7438 11.8211ZM13.7514 34.7428C13.3096 34.7428 12.9529 34.3862 12.9529 33.9444V17.123H18.5423C18.9841 17.123 19.3408 16.7664 19.3408 16.3245V10.6819H29.721C30.1735 10.6819 30.5728 11.0545 30.5728 11.4804V23.7078C28.88 24.139 27.448 25.2356 26.591 26.7048H15.3484C14.9065 26.7048 14.5499 27.0614 14.5499 27.5033C14.5499 27.9451 14.9065 28.3018 15.3484 28.3018H25.9309C25.7978 28.8128 25.7286 29.3451 25.7286 29.8987H15.3484C14.9065 29.8987 14.5499 30.2554 14.5499 30.6972C14.5499 31.139 14.9065 31.4957 15.3484 31.4957H25.9309C26.2556 32.7466 26.953 33.8698 27.9484 34.7428H13.7514ZM32.1697 34.7428C29.5454 34.7428 27.3256 32.5231 27.3256 29.8987C27.3256 27.2584 29.4975 25.1078 32.1697 25.1078C34.842 25.1078 37.0138 27.2584 37.0138 29.8987C37.0138 32.5231 34.7941 34.7428 32.1697 34.7428Z" fill="#36C0AD"/>
<path d="M35.1879 28.5413C34.8792 28.2272 34.3735 28.2219 34.0594 28.5307L31.3659 31.1763L30.2746 30.1223C29.9552 29.8136 29.4548 29.8242 29.1461 30.1383C28.8373 30.4524 28.848 30.9581 29.1621 31.2668L30.8123 32.8638C31.121 33.1672 31.6161 33.1619 31.9301 32.8584L35.1773 29.6645C35.4914 29.3611 35.4967 28.8554 35.1879 28.5413Z" fill="#36C0AD"/>
</svg>
