<svg width="46" height="46" viewBox="0 0 46 46" fill="none" xmlns="http://www.w3.org/2000/svg">
<rect width="46" height="46" rx="15" fill="#D7D7D7"/>
<path d="M41.493 20.4528H38.3779C37.4339 20.4528 36.6207 21.0629 36.323 21.9054H34.268C36.2286 19.9807 35.8365 18.5209 33.6 17.4169C31.7702 16.4655 30.4632 15.4632 30.0928 14.7369C28.5172 11.6138 25.8015 9.29692 22.4395 8.21474C19.0775 7.12529 15.4978 7.40855 12.3464 8.99187C5.98555 12.0351 3.11736 20.4456 6.42848 26.6845C7.51767 28.8343 9.18049 30.6355 11.2427 31.8993C13.9947 33.577 14.4521 34.6955 14.4521 37.1867C14.4521 37.5862 14.7789 37.913 15.1783 37.913H28.8657C29.2651 37.913 29.5918 37.5862 29.5918 37.1867V36.9543C29.5918 35.233 29.5918 34.2888 29.9694 33.6497C30.3615 32.996 31.32 32.4295 33.0554 31.5507C35.0958 30.5193 35.9236 28.0426 34.8998 26.0235L33.5564 23.3653H36.3085C36.6062 24.2078 37.4122 24.8179 38.3634 24.8179H41.493C41.8923 24.8179 42.2191 24.4911 42.2191 24.0916V21.1864C42.2191 20.7797 41.8923 20.4528 41.493 20.4528ZM12.0051 30.6573C4.23559 25.9945 4.87458 14.3084 13.0072 10.2919C18.8161 7.35771 25.9031 9.64554 28.8003 15.3833C29.4611 16.6834 31.4071 17.9035 32.932 18.6952C33.9413 19.2181 34.0793 19.5087 34.0865 19.6103C34.101 19.712 34.0429 19.8573 33.9413 20.0171C31.5669 19.1891 28.9238 18.4918 26.7817 18.1432C23.4633 17.5985 21.481 17.8745 20.7258 18.9857C20.5806 19.1963 20.3337 19.2545 19.7674 19.3343C19.1502 19.4215 18.3805 19.5304 17.7342 20.1768C16.8048 21.1065 16.3691 23.082 17.3857 24.9268C19.6439 29.0231 19.5858 32.7999 19.4188 36.4532H15.8971C15.7809 34.0709 15.0258 32.5094 12.0051 30.6573ZM33.3096 26.0599C32.6706 26.4012 31.9445 26.6917 31.1748 26.9968C30.6883 27.1929 30.1872 27.389 29.6862 27.6141C29.3159 27.7739 29.1561 28.2024 29.3159 28.5728C29.4756 28.9433 29.9186 29.103 30.2744 28.9433C30.7536 28.7326 31.2401 28.5365 31.7194 28.3477C32.4745 28.0426 33.2006 27.7594 33.8687 27.4108C34.0575 28.5293 33.4984 29.6986 32.4164 30.2506C30.3833 31.2747 29.3159 31.9356 28.735 32.9016C28.2049 33.7949 28.1541 34.8335 28.1468 36.4532H25.2133C25.2569 35.0587 25.482 33.8821 25.9104 32.8725C26.0701 32.5021 25.8958 32.0736 25.5255 31.9211C25.1552 31.7613 24.7268 31.9356 24.5743 32.306C24.066 33.4899 23.7973 34.8553 23.761 36.4532H20.8711C21.1252 32.168 20.7912 27.9628 18.6564 24.2223C17.9375 22.9223 18.2861 21.673 18.7581 21.2009C19.063 20.8959 19.4769 20.8378 19.9634 20.7724C20.6024 20.678 21.3939 20.569 21.9167 19.8064C22.1999 19.3997 23.5795 19.0947 26.5421 19.5813C28.7059 19.9372 31.0949 20.6054 32.9029 21.2009C32.6415 21.4551 32.3729 21.7021 32.155 21.8982H22.8316C22.6356 21.673 22.3451 21.535 22.0183 21.535H20.4064C18.9614 21.5931 18.9614 23.6558 20.4064 23.7139H22.0183C22.3378 23.7139 22.6283 23.5759 22.8316 23.3508H31.9445L33.3096 26.0599ZM40.7668 23.358H38.3779C37.4122 23.3145 37.4122 21.9418 38.3779 21.9054H40.7668V23.358Z" fill="#9F9F9F"/>
<path d="M27.1747 30.6864C28.1404 30.65 28.1404 29.2701 27.1747 29.2338C26.2162 29.2701 26.2162 30.6428 27.1747 30.6864Z" fill="#9F9F9F"/>
</svg>
