<svg width="47" height="47" viewBox="0 0 47 47" fill="none" xmlns="http://www.w3.org/2000/svg">
<rect width="46.1818" height="46.1818" rx="15" fill="#D7D7D7"/>
<path d="M40 23.5008C40 20.3316 37.5976 17.7243 34.5506 17.4648V16.5612C34.5506 16.3075 34.3667 16.0929 34.1196 16.0587C34.0257 16.046 33.292 15.9455 32.2067 15.8109C32.1463 15.7845 32.0793 15.7689 32.0094 15.7689C31.9816 15.7689 31.9548 15.7718 31.9289 15.7757C29.3627 15.4615 25.1394 15 22.5005 15C19.8615 15 15.6373 15.4615 13.0721 15.7757C13.0462 15.7718 13.0194 15.7689 12.9916 15.7689C12.9217 15.7689 12.8546 15.7835 12.7943 15.8109C11.708 15.9455 10.9743 16.046 10.8804 16.0587C10.6333 16.0929 10.4494 16.3075 10.4494 16.5612V17.4657C7.40236 17.7243 5 20.3316 5 23.5008C5 26.6701 7.40236 29.2773 10.4494 29.5369V30.4395C10.4494 30.6424 10.5672 30.8259 10.7502 30.9059C10.8392 30.9449 11.5442 31.2513 12.6132 31.6572C12.7042 31.7655 12.8393 31.8338 12.9906 31.8338C13.0165 31.8338 13.0414 31.8309 13.0673 31.827C15.5348 32.7403 19.4851 34 22.5005 34C27.127 34 33.9606 31.0317 34.2498 30.9049C34.4328 30.8249 34.5516 30.6414 34.5516 30.4385V29.5359C37.5976 29.2773 40 26.6701 40 23.5008ZM31.5113 23.0608C30.0534 23.2676 25.2065 23.9243 22.5005 23.9243C19.7935 23.9243 14.9466 23.2676 13.4897 23.0608V20.5374H31.5113V23.0608ZM13.4887 24.0853C15.1123 24.3146 19.7744 24.9381 22.4995 24.9381C25.2247 24.9381 29.8867 24.3146 31.5103 24.0853V26.5862C30.1463 26.9745 25.2189 28.3221 22.4995 28.3221C19.7811 28.3221 14.8528 26.9745 13.4887 26.5862V24.0853ZM31.5113 16.7486V19.5226H13.4887V16.7486C16.0587 16.4392 20.0397 16.0148 22.4995 16.0148C24.9594 16.0148 28.9403 16.4402 31.5113 16.7486ZM5.9962 23.5008C5.9962 20.8907 7.95219 18.7381 10.4494 18.4825V28.5192C7.95219 28.2635 5.9962 26.111 5.9962 23.5008ZM11.4456 17.0062C11.7004 16.972 12.0577 16.9262 12.4925 16.8715V30.5214C12.0375 30.3448 11.6783 30.1975 11.4456 30.1009V17.0062ZM33.5544 30.1009C32.177 30.6746 26.3914 32.9852 22.5005 32.9852C19.6939 32.9852 15.9026 31.7831 13.4897 30.8981V27.641C15.1784 28.1162 19.782 29.3378 22.5005 29.3378C25.218 29.3378 29.8225 28.1162 31.5113 27.641V28.8294C31.5113 29.1105 31.7344 29.3368 32.0094 29.3368C32.2843 29.3368 32.5075 29.1095 32.5075 28.8294V16.8715C32.9423 16.9262 33.3006 16.972 33.5544 17.0062V30.1009ZM34.5506 28.5192V18.4825C37.0478 18.7381 39.0038 20.8907 39.0038 23.5008C39.0038 26.111 37.0478 28.2635 34.5506 28.5192Z" fill="#9F9F9F"/>
</svg>
