<svg width="16" height="16" viewBox="0 0 16 16" fill="none" xmlns="http://www.w3.org/2000/svg">
<circle cx="7.5885" cy="7.75663" r="7.5885" fill="#FF8C85"/>
<path d="M10.6547 9.02669C10.1825 8.55444 9.62027 8.20483 9.00692 7.99309C9.6638 7.54067 10.0954 6.78351 10.0954 5.92726C10.0954 4.5449 8.97084 3.42035 7.58848 3.42035C6.20612 3.42035 5.08157 4.5449 5.08157 5.92726C5.08157 6.78351 5.51316 7.54067 6.17004 7.99309C5.55669 8.20466 4.9945 8.55444 4.52225 9.02669C3.70327 9.84567 3.2522 10.9347 3.2522 12.0929H3.92974C3.92974 10.0755 5.57109 8.43418 7.58848 8.43418C9.60587 8.43418 11.2472 10.0755 11.2472 12.0929H11.9248C11.9248 10.9347 11.4737 9.84567 10.6547 9.02669ZM5.75911 5.92726C5.75911 4.91857 6.57979 4.09789 7.58848 4.09789C8.59717 4.09789 9.41785 4.91857 9.41785 5.92726C9.41785 6.93596 8.59717 7.75663 7.58848 7.75663C6.57979 7.75663 5.75911 6.93596 5.75911 5.92726Z" fill="white"/>
</svg>
