<svg width="16" height="16" viewBox="0 0 16 16" fill="none" xmlns="http://www.w3.org/2000/svg">
<circle cx="7.66369" cy="8.31859" r="7.5885" fill="#547998"/>
<path d="M10.7299 9.58865C10.2577 9.1164 9.69546 8.76679 9.08211 8.55505C9.73899 8.10262 10.1706 7.34547 10.1706 6.48922C10.1706 5.10686 9.04604 3.98231 7.66368 3.98231C6.28132 3.98231 5.15676 5.10686 5.15676 6.48922C5.15676 7.34547 5.58836 8.10262 6.24524 8.55505C5.63189 8.76662 5.0697 9.1164 4.59745 9.58865C3.77847 10.4076 3.32739 11.4966 3.32739 12.6549H4.00494C4.00494 10.6375 5.64629 8.99613 7.66368 8.99613C9.68106 8.99613 11.3224 10.6375 11.3224 12.6549H12C12 11.4966 11.5489 10.4076 10.7299 9.58865ZM5.83431 6.48922C5.83431 5.48053 6.65498 4.65985 7.66368 4.65985C8.67237 4.65985 9.49305 5.48053 9.49305 6.48922C9.49305 7.49792 8.67237 8.31859 7.66368 8.31859C6.65498 8.31859 5.83431 7.49792 5.83431 6.48922Z" fill="white"/>
</svg>
