<svg width="16" height="16" viewBox="0 0 16 16" fill="none" xmlns="http://www.w3.org/2000/svg">
<circle cx="7.5885" cy="7.75663" r="7.5885" fill="#6BCAFF"/>
<path d="M10.6552 9.02669C10.1829 8.55444 9.62075 8.20483 9.00741 7.99309C9.66429 7.54067 10.0959 6.78351 10.0959 5.92726C10.0959 4.5449 8.97133 3.42035 7.58897 3.42035C6.20661 3.42035 5.08205 4.5449 5.08205 5.92726C5.08205 6.78351 5.51365 7.54067 6.17053 7.99309C5.55718 8.20466 4.99499 8.55444 4.52274 9.02669C3.70376 9.84567 3.25269 10.9347 3.25269 12.0929H3.93023C3.93023 10.0755 5.57158 8.43418 7.58897 8.43418C9.60636 8.43418 11.2477 10.0755 11.2477 12.0929H11.9253C11.9253 10.9347 11.4742 9.84567 10.6552 9.02669ZM5.7596 5.92726C5.7596 4.91857 6.58027 4.09789 7.58897 4.09789C8.59766 4.09789 9.41834 4.91857 9.41834 5.92726C9.41834 6.93596 8.59766 7.75663 7.58897 7.75663C6.58027 7.75663 5.7596 6.93596 5.7596 5.92726Z" fill="white"/>
</svg>
