<svg width="20" height="15" viewBox="0 0 20 15" fill="none" xmlns="http://www.w3.org/2000/svg">
<path d="M6.23443 8.52748C6.77661 8.52748 7.21776 8.06641 7.21776 7.50027C7.21776 6.93358 6.77661 6.4725 6.23443 6.4725C5.69224 6.4725 5.2511 6.93358 5.2511 7.50027C5.2511 8.06641 5.69224 8.52748 6.23443 8.52748Z" fill="#547998"/>
<path d="M6.23433 9.75232C5.37756 9.75232 4.64944 10.3408 4.401 11.1513H8.06767C7.81923 10.3408 7.09111 9.75232 6.23433 9.75232Z" fill="#547998"/>
<path d="M18.1589 0H1.84115C0.8125 0 0 0.873163 0 1.92433V13.0757C0 14.1508 0.835417 15 1.84115 15H18.1589C19.1875 15 20 14.1268 20 13.0757V1.92433C20 0.848666 19.1646 0 18.1589 0ZM8.74479 12.3762H3.72396C3.40052 12.3762 3.13802 12.1018 3.13802 11.7637C3.13802 10.5939 3.7349 9.56723 4.62708 8.99837C4.28646 8.59989 4.07917 8.07512 4.07917 7.49973C4.07917 6.25803 5.04583 5.24714 6.23437 5.24714C7.42292 5.24714 8.38958 6.25749 8.38958 7.49973C8.38958 8.07458 8.18229 8.59989 7.84167 8.99837C8.73385 9.56723 9.33073 10.5939 9.33073 11.7637C9.33073 12.1018 9.06823 12.3762 8.74479 12.3762ZM15.0208 12.3762H11.8828C11.5594 12.3762 11.2969 12.1018 11.2969 11.7637C11.2969 11.4257 11.5594 11.1513 11.8828 11.1513H15.0208C15.3443 11.1513 15.6068 11.4257 15.6068 11.7637C15.6068 12.1018 15.3443 12.3762 15.0208 12.3762ZM16.276 9.75231H11.8828C11.5594 9.75231 11.2969 9.47795 11.2969 9.1399C11.2969 8.80185 11.5594 8.52749 11.8828 8.52749H16.276C16.6 8.52749 16.862 8.80185 16.862 9.1399C16.862 9.47795 16.5995 9.75231 16.276 9.75231ZM16.276 7.12847H11.8828C11.5594 7.12847 11.2969 6.85411 11.2969 6.51606C11.2969 6.17801 11.5594 5.90365 11.8828 5.90365H16.276C16.6 5.90365 16.862 6.17801 16.862 6.51606C16.862 6.85411 16.5995 7.12847 16.276 7.12847ZM16.276 3.84867H3.72396C3.40052 3.84867 3.13802 3.57431 3.13802 3.23625C3.13802 2.8982 3.40052 2.62384 3.72396 2.62384H16.276C16.6 2.62384 16.862 2.8982 16.862 3.23625C16.862 3.57431 16.5995 3.84867 16.276 3.84867Z" fill="#547998"/>
</svg>
