<svg width="90" height="68" viewBox="0 0 90 68" fill="none" xmlns="http://www.w3.org/2000/svg">
<path d="M82.6632 59.4707H39.9982C36.36 59.4707 33.4111 56.5355 33.4111 52.9142V52.5197C33.4111 48.8984 36.36 45.9632 39.9982 45.9632H82.6632C86.3014 45.9632 89.2502 48.8984 89.2502 52.5197V52.9142C89.2502 56.5344 86.3014 59.4707 82.6632 59.4707Z" fill="url(#paint0_linear)"/>
<path d="M12.4826 3.949V13.1644H26.6125V3.949C26.6125 2.63267 26.9098 1.64514 27.5055 0.987525C28.1001 0.32881 28.882 0 29.8521 0C30.8365 0 31.6337 0.325522 32.2438 0.976565C32.8538 1.62761 33.1588 2.61842 33.1588 3.949V29.2904C33.1588 30.6209 32.8505 31.6161 32.2327 32.2738C31.615 32.9325 30.8222 33.2613 29.8521 33.2613C28.8676 33.2613 28.0814 32.9281 27.4934 32.2628C26.9054 31.5975 26.6114 30.6067 26.6114 29.2904V18.4736H12.4826V29.2904C12.4826 30.6209 12.1743 31.6161 11.5565 32.2738C10.9388 32.9325 10.146 33.2613 9.17585 33.2613C8.19143 33.2613 7.40521 32.9281 6.8172 32.2628C6.22919 31.5975 5.93518 30.6067 5.93518 29.2904V3.949C5.93518 2.63267 6.22478 1.64514 6.80619 0.987525C7.38649 0.32881 8.17711 0 9.17585 0C10.1603 0 10.9575 0.325522 11.5675 0.976565C12.1776 1.62761 12.4826 2.61842 12.4826 3.949Z" fill="url(#paint1_linear)"/>
<path d="M63.0189 19.7889V4.89051C63.0189 3.6224 63.3052 2.67214 63.8789 2.03754C64.4526 1.40403 65.2058 1.08618 66.1396 1.08618C67.1163 1.08618 67.8915 1.40293 68.4641 2.03754C69.0367 2.67104 69.3241 3.6224 69.3241 4.89051V20.1265C69.3241 21.8593 69.519 23.3071 69.9077 24.4689C70.2964 25.6318 70.9868 26.5328 71.9778 27.1739C72.9689 27.8151 74.3563 28.1352 76.1391 28.1352C78.6023 28.1352 80.3432 27.4841 81.3618 26.1809C82.3815 24.8778 82.8902 22.9016 82.8902 20.2536V4.89051C82.8902 3.60815 83.1732 2.6546 83.7392 2.02658C84.3052 1.39965 85.0627 1.08618 86.0108 1.08618C86.9589 1.08618 87.7264 1.39965 88.3144 2.02658C88.9013 2.65351 89.1953 3.60815 89.1953 4.89051V19.7889C89.1953 22.2122 88.9586 24.2344 88.484 25.8543C88.0094 27.4743 87.1142 28.8969 85.7983 30.1234C84.6663 31.1657 83.3494 31.9274 81.8496 32.4053C80.3487 32.8843 78.5946 33.1243 76.5839 33.1243C74.1922 33.1243 72.132 32.8667 70.4054 32.3527C68.6788 31.8387 67.2704 31.0429 66.1803 29.9644C65.0902 28.887 64.2907 27.506 63.7809 25.8225C63.2733 24.139 63.0189 22.1278 63.0189 19.7889Z" fill="url(#paint2_linear)"/>
<path d="M58.9379 21.6905C58.2794 21.3946 57.4051 21.2466 56.316 21.2466H55.4032V4.89051C55.4032 2.43868 54.3274 1.21332 52.1757 1.21332C51.5106 1.21332 50.9402 1.43472 50.4667 1.87861C49.9922 2.3225 49.3876 3.03712 48.6521 4.02354L37.3995 19.0063C37.0878 19.4151 36.8258 19.7604 36.6143 20.0421C36.4018 20.3237 36.197 20.6164 35.9988 20.9189C35.8006 21.2225 35.6519 21.5107 35.5528 21.7858C35.4537 22.061 35.4042 22.3317 35.4042 22.5991C35.4042 23.6414 35.74 24.4656 36.4128 25.0718C37.0845 25.6779 38.0932 25.9804 39.4377 25.9804H50.0957V29.9107C50.0957 30.9673 50.3401 31.7674 50.8279 32.3089C51.3157 32.8514 51.9566 33.1221 52.7494 33.1221C53.5566 33.1221 54.1996 32.858 54.6819 32.3297C55.1631 31.8014 55.4043 30.9947 55.4043 29.9096V25.9793H56.6992C57.775 25.9793 58.5811 25.7929 59.1195 25.4192C59.6569 25.0465 59.9267 24.4503 59.9267 23.6338C59.9245 22.6353 59.5952 21.9864 58.9379 21.6905ZM50.0483 20.5605C50.0483 20.6394 49.9844 20.703 49.9052 20.703H41.2039C41.0861 20.703 41.0178 20.5693 41.0883 20.475L49.7895 8.77375C49.8721 8.66305 50.0483 8.72114 50.0483 8.85924V20.5605Z" fill="#5877EC"/>
<path d="M30.2187 41.7785C28.5197 39.9438 26.1885 38.9343 23.6537 38.9343C21.7586 38.9343 20.0243 39.5306 18.4959 40.7066C17.7251 41.2996 17.027 42.0262 16.4115 42.8735C15.7959 42.0262 15.0978 41.2996 14.3259 40.7066C12.7986 39.5306 11.0632 38.9343 9.16924 38.9343C6.6344 38.9343 4.30328 39.9449 2.60421 41.7785C0.924962 43.5914 0 46.0673 0 48.7526C0 51.5157 1.03398 54.0442 3.25499 56.712C5.24145 59.098 8.09672 61.5203 11.4035 64.325C12.5321 65.2829 13.8128 66.3691 15.1419 67.5254C15.4931 67.8312 15.9435 68 16.4104 68C16.8773 68 17.3276 67.8312 17.6789 67.5254C19.008 66.3691 20.2886 65.2829 21.4184 64.3239C24.7251 61.5192 27.5804 59.098 29.5669 56.7109C31.7879 54.0431 32.8218 51.5146 32.8218 48.7515C32.8218 46.0673 31.898 43.5914 30.2187 41.7785Z" fill="url(#paint3_linear)"/>
<path d="M15.8245 62.1089C15.7948 62.1089 15.7948 62.1089 15.8245 62.1089C15.5283 62.1089 15.2607 61.7845 15.231 61.5181L12.5013 47.3114L10.4245 57.9736C10.365 58.2399 10.1283 58.446 9.86072 58.446C9.56451 58.4755 9.32666 58.298 9.23747 58.0327L7.39746 52.5098L6.12123 54.7249C6.00231 54.9321 5.79529 55.0198 5.58717 55.0198H3.15364C2.79797 55.0198 2.5304 54.7534 2.5304 54.429C2.5304 54.1046 2.79797 53.8382 3.15364 53.8382H5.2304L6.98122 50.6488C7.10015 50.4416 7.33689 50.3243 7.57474 50.3243C7.81259 50.3539 8.0196 50.5019 8.1088 50.7376L9.6515 55.3749L11.8769 43.8852C11.9364 43.5903 12.1731 43.3832 12.4704 43.3832C12.7666 43.3832 13.0342 43.5903 13.0639 43.8852L15.9126 58.5643L17.0996 54.2525C17.1591 53.9862 17.4256 53.7801 17.6932 53.7801H20.8975L22.797 50.6488C22.9159 50.4712 23.0932 50.3539 23.3013 50.3539C23.5094 50.3539 23.7164 50.4427 23.8354 50.6203L26.0608 53.8393H28.6132C28.9392 53.8393 29.2365 54.1057 29.2365 54.4301C29.2365 54.7545 28.9689 55.0208 28.6132 55.0208H25.7348C25.5267 55.0208 25.3494 54.9617 25.2305 54.7841L23.3608 52.1262L21.7586 54.7249C21.6397 54.9321 21.4624 55.0198 21.2245 55.0198H18.1689L16.418 61.5181C16.3288 61.7834 16.0921 62.1089 15.8245 62.1089Z" fill="white"/>
<path d="M46.4352 55.8001L44.92 49.8059V56.301C44.92 56.6605 44.8396 56.9301 44.6778 57.1098C44.517 57.2896 44.3023 57.3795 44.0358 57.3795C43.7781 57.3795 43.5667 57.2907 43.4038 57.1131C43.2408 56.9356 43.1582 56.6648 43.1582 56.301V48.8567C43.1582 48.4457 43.2661 48.1695 43.4808 48.0259C43.6956 47.8823 43.9863 47.8111 44.3507 47.8111H44.9443C45.301 47.8111 45.5598 47.8429 45.7217 47.9075C45.8824 47.9711 46.0025 48.0873 46.0795 48.2539C46.1566 48.4205 46.2447 48.6923 46.3438 49.0693L47.7169 54.2229L49.0901 49.0693C49.1892 48.6934 49.2773 48.4216 49.3543 48.2539C49.4314 48.0873 49.5514 47.9711 49.7122 47.9075C49.873 47.8429 50.1328 47.8111 50.4896 47.8111H51.0831C51.4487 47.8111 51.7383 47.8823 51.953 48.0259C52.1678 48.1695 52.2757 48.4457 52.2757 48.8567V56.301C52.2757 56.6605 52.1953 56.9301 52.0334 57.1098C51.8727 57.2896 51.6557 57.3795 51.3859 57.3795C51.1327 57.3795 50.9235 57.2896 50.7605 57.1098C50.5975 56.9301 50.516 56.6605 50.516 56.301V49.8059L49.0009 55.8001C48.9018 56.1892 48.8214 56.4752 48.7586 56.6572C48.6958 56.8391 48.5813 57.0046 48.414 57.1548C48.2466 57.3049 48.0142 57.3795 47.718 57.3795C47.4945 57.3795 47.3051 57.3312 47.1509 57.2348C46.9968 57.1383 46.8757 57.0156 46.7898 56.8654C46.7039 56.7153 46.6356 56.5498 46.5861 56.3678C46.5376 56.1859 46.487 55.9963 46.4352 55.8001Z" fill="white"/>
<path d="M58.4022 47.65C59.3822 47.65 60.2235 47.8483 60.926 48.244C61.6286 48.6397 62.1604 49.2019 62.5216 49.9319C62.8828 50.6619 63.0633 51.5179 63.0633 52.5021C63.0633 53.2299 62.9642 53.8908 62.7671 54.4848C62.5689 55.08 62.2727 55.5951 61.8774 56.0313C61.4821 56.4676 60.9965 56.8018 60.4206 57.032C59.8447 57.2633 59.1851 57.3784 58.4407 57.3784C57.7019 57.3784 57.039 57.26 56.4543 57.0222C55.8696 56.7843 55.3818 56.45 54.9909 56.0182C54.6 55.5864 54.3037 55.0657 54.1044 54.4585C53.9051 53.8513 53.8049 53.1937 53.8049 52.4879C53.8049 51.7645 53.9095 51.1014 54.1177 50.4986C54.3258 49.8957 54.6275 49.3817 55.0239 48.9586C55.4203 48.5356 55.9004 48.2111 56.4686 47.9864C57.0346 47.7618 57.6799 47.65 58.4022 47.65ZM61.1231 52.4879C61.1231 51.7996 61.0108 51.2022 60.7884 50.6969C60.5649 50.1917 60.2455 49.8102 59.8304 49.5516C59.4153 49.2929 58.9396 49.1636 58.4022 49.1636C58.0201 49.1636 57.6655 49.2348 57.3418 49.3784C57.017 49.522 56.7373 49.7302 56.5038 50.0042C56.2693 50.2783 56.0843 50.6279 55.9489 51.0531C55.8134 51.4784 55.7462 51.9574 55.7462 52.4879C55.7462 53.0227 55.8134 53.5061 55.9489 53.9379C56.0843 54.3698 56.2759 54.7282 56.5226 55.0131C56.7692 55.2981 57.0533 55.5107 57.3737 55.6521C57.6942 55.7935 58.0454 55.8636 58.4275 55.8636C58.9175 55.8636 59.3679 55.742 59.7786 55.4976C60.1894 55.2543 60.5153 54.8772 60.7587 54.3676C61.0009 53.8601 61.1231 53.2332 61.1231 52.4879Z" fill="white"/>
<path d="M68.3699 53.5532H66.6158V56.2166C66.6158 56.598 66.5255 56.8862 66.3449 57.0835C66.1643 57.2808 65.9364 57.3784 65.6611 57.3784C65.3726 57.3784 65.1414 57.2808 64.9652 57.0868C64.789 56.8917 64.7009 56.6067 64.7009 56.2297V48.9773C64.7009 48.5575 64.7978 48.2583 64.9916 48.0785C65.1854 47.8988 65.4927 47.8089 65.9133 47.8089H68.3699C69.0967 47.8089 69.655 47.8648 70.0459 47.9755C70.4324 48.0829 70.7671 48.2605 71.049 48.5082C71.3309 48.7559 71.5445 49.0606 71.691 49.419C71.8374 49.7785 71.9101 50.1829 71.9101 50.6323C71.9101 51.5913 71.6139 52.3169 71.0204 52.8112C70.4269 53.3066 69.5438 53.5532 68.3699 53.5532ZM67.9053 49.2414H66.6158V52.1163H67.9053C68.3567 52.1163 68.7333 52.0692 69.0372 51.9749C69.3412 51.8807 69.5713 51.7272 69.7299 51.5124C69.8884 51.2976 69.9688 51.0181 69.9688 50.6717C69.9688 50.2563 69.8466 49.9188 69.601 49.6579C69.3268 49.3806 68.7608 49.2414 67.9053 49.2414Z" fill="white"/>
<path d="M75.4369 48.8041V51.4992H79.5695V48.8041C79.5695 48.4194 79.6564 48.13 79.8304 47.9382C80.0044 47.7453 80.2334 47.65 80.5175 47.65C80.8049 47.65 81.0384 47.7453 81.2168 47.936C81.3952 48.1267 81.4843 48.4161 81.4843 48.8052V56.2177C81.4843 56.6068 81.3941 56.8983 81.2135 57.0901C81.0329 57.2819 80.8005 57.3784 80.5175 57.3784C80.229 57.3784 79.9989 57.2808 79.8271 57.0868C79.6553 56.8917 79.5695 56.6024 79.5695 56.2177V53.0534H75.4369V56.2177C75.4369 56.6068 75.3466 56.8983 75.166 57.0901C74.9854 57.2819 74.753 57.3784 74.4701 57.3784C74.1816 57.3784 73.9525 57.2808 73.7807 57.0868C73.609 56.8917 73.5231 56.6024 73.5231 56.2177V48.8052C73.5231 48.4205 73.6079 48.1311 73.7774 47.9393C73.947 47.7464 74.1782 47.6511 74.4701 47.6511C74.7586 47.6511 74.9909 47.7464 75.1693 47.9371C75.3466 48.1256 75.4369 48.415 75.4369 48.8041Z" fill="white"/>
<defs>
<linearGradient id="paint0_linear" x1="99.9881" y1="52.9215" x2="33.2722" y2="52.5641" gradientUnits="userSpaceOnUse">
<stop stop-color="#63A5F3"/>
<stop offset="1" stop-color="#5877EC"/>
</linearGradient>
<linearGradient id="paint1_linear" x1="19.0093" y1="1.98295" x2="19.995" y2="29.0614" gradientUnits="userSpaceOnUse">
<stop stop-color="#63A5F3"/>
<stop offset="1" stop-color="#5877EC"/>
</linearGradient>
<linearGradient id="paint2_linear" x1="75.9004" y1="1.64114" x2="76.3952" y2="27.6926" gradientUnits="userSpaceOnUse">
<stop stop-color="#63A5F3"/>
<stop offset="1" stop-color="#5877EC"/>
</linearGradient>
<linearGradient id="paint3_linear" x1="0" y1="53.4666" x2="32.8222" y2="53.4666" gradientUnits="userSpaceOnUse">
<stop stop-color="#63A5F3"/>
<stop offset="1" stop-color="#5877EC"/>
</linearGradient>
</defs>
</svg>
