<svg width="20" height="20" viewBox="0 0 20 20" fill="none" xmlns="http://www.w3.org/2000/svg">
<circle cx="9.9697" cy="9.9697" r="9.9697" fill="#547998"/>
<path d="M13.9981 11.6383C13.3776 11.0179 12.639 10.5585 11.8332 10.2804C12.6962 9.68597 13.2632 8.69123 13.2632 7.5663C13.2632 5.75016 11.7858 4.27274 9.96967 4.27274C8.15354 4.27274 6.67611 5.75016 6.67611 7.5663C6.67611 8.69123 7.24314 9.68597 8.10614 10.2804C7.30033 10.5583 6.56173 11.0179 5.94129 11.6383C4.86532 12.7143 4.27271 14.145 4.27271 15.6667H5.16286C5.16286 13.0162 7.31925 10.8599 9.96967 10.8599C12.6201 10.8599 14.7765 13.0162 14.7765 15.6667H15.6666C15.6666 14.145 15.074 12.7143 13.9981 11.6383ZM7.56627 7.5663C7.56627 6.24108 8.64446 5.16289 9.96967 5.16289C11.2949 5.16289 12.3731 6.24108 12.3731 7.5663C12.3731 8.89151 11.2949 9.96971 9.96967 9.96971C8.64446 9.96971 7.56627 8.89151 7.56627 7.5663Z" fill="white"/>
</svg>
