<svg width="36" height="36" viewBox="0 0 36 36" fill="none" xmlns="http://www.w3.org/2000/svg">
<circle cx="18" cy="18" r="18" fill="#6BAFFF"/>
<path d="M25.2733 21.0126C24.1531 19.8924 22.8195 19.0631 21.3647 18.5609C22.9228 17.4877 23.9466 15.6917 23.9466 13.6607C23.9466 10.3817 21.2791 7.71429 18.0001 7.71429C14.7212 7.71429 12.0537 10.3817 12.0537 13.6607C12.0537 15.6917 13.0775 17.4877 14.6356 18.5609C13.1807 19.0627 11.8472 19.8924 10.727 21.0126C8.78437 22.9552 7.71442 25.5383 7.71442 28.2857H9.32156C9.32156 23.5005 13.2149 19.6072 18.0001 19.6072C22.7854 19.6072 26.6787 23.5005 26.6787 28.2857H28.2858C28.2858 25.5383 27.2159 22.9552 25.2733 21.0126ZM13.6608 13.6607C13.6608 11.2681 15.6075 9.32144 18.0001 9.32144C20.3928 9.32144 22.3394 11.2681 22.3394 13.6607C22.3394 16.0534 20.3928 18 18.0001 18C15.6075 18 13.6608 16.0534 13.6608 13.6607Z" fill="white"/>
</svg>
